#N canvas 725 350 588 344 10;
#X obj 80 261 sendOSC;
#X msg 142 112 send /oo brussels play;
#X msg 144 159 send /oo brussels stop;
#X floatatom 350 144 5 1 400 0 - - -;
#X msg 349 93 send /oo brussels set freq \$1;
#X msg 351 177 send /oo brussels set numharm \$1;
#X obj 354 60 hsl 128 15 5 800 1 0 empty empty empty -2 -8 0 10 -262144
-1 -1 0 1;
#X text 17 10 //for the supercollider example to access \, see OpenObject
helpfile;
#X floatatom 266 226 5 0 10 0 - - -;
#X msg 267 259 send /ook brussels play fadeTime_ \$1;
#X msg 81 66 connect 127.0.0.1 57120;
#X connect 1 0 0 0;
#X connect 2 0 0 0;
#X connect 3 0 5 0;
#X connect 4 0 0 0;
#X connect 5 0 0 0;
#X connect 6 0 4 0;
#X connect 8 0 9 0;
#X connect 9 0 0 0;
#X connect 10 0 0 0;
