#N canvas 308 243 614 384 10;
#X floatatom 351 149 5 1 400 0 - - -, f 5;
#X obj 352 67 hsl 128 15 5 800 0 0 empty empty empty -2 -8 0 10 -262144
-1 -1 4900 1;
#X floatatom 267 233 5 0 10 0 - - -, f 5;
#X msg 81 66 connect 127.0.0.1 57120;
#X text 17 10 //first start supercollider and run the code in 'openobject_supercollider.scd'
;
#X obj 80 282 netsend -u -b;
#X obj 121 194 oscformat /oo;
#X obj 91 238 list prepend send;
#X obj 91 257 list trim;
#X obj 121 175 list;
#X msg 142 112 brussels play;
#X msg 144 138 brussels stop;
#X msg 349 93 brussels set freq \$1;
#X msg 351 177 brussels set numharm \$1;
#X obj 267 289 list;
#X obj 267 308 oscformat /oo_k;
#X msg 267 259 brussels play fadeTime \$1;
#X msg 433 259 brussels stop fadeTime 10;
#X floatatom 433 233 5 0 10 0 - - -, f 5;
#X connect 0 0 13 0;
#X connect 1 0 12 0;
#X connect 2 0 16 0;
#X connect 3 0 5 0;
#X connect 6 0 7 0;
#X connect 7 0 8 0;
#X connect 8 0 5 0;
#X connect 9 0 6 0;
#X connect 10 0 9 0;
#X connect 11 0 9 0;
#X connect 12 0 9 0;
#X connect 13 0 9 0;
#X connect 14 0 15 0;
#X connect 15 0 7 0;
#X connect 16 0 14 0;
#X connect 17 0 14 0;
#X connect 18 0 17 0;
