#N canvas 39 125 934 524 10;
#X obj 34 51 openpanel;
#X obj 34 23 bng 15 250 50 0 empty empty empty 17 7 0 10 -262144 -1
-1;
#X obj 739 134 loadbang;
#X msg 739 155 connect 127.0.0.1 57120;
#X text 56 21 load a soundfile;
#X floatatom 112 59 5 0 0 0 - - -, f 5;
#X obj 34 129 s toSC;
#X obj 34 87 pack s 1;
#X obj 24 333 hsl 128 15 0 1 0 0 empty empty empty -2 -8 0 10 -262144
-1 -1 5900 1;
#X obj 643 46 r toSC;
#X obj 380 28 vsl 15 128 -127 20 0 0 empty empty empty 0 -9 0 10 -262144
-1 -1 10772 1;
#X text 406 45 main volume;
#X floatatom 380 167 5 0 0 0 - - -, f 5;
#X obj 416 73 loadbang;
#X msg 416 95 0;
#X text 421 168 db;
#X obj 380 210 s toSC;
#X obj 21 498 s toSC;
#X obj 24 353 hsl 128 15 0 1 0 0 empty empty empty -2 -8 0 10 -262144
-1 -1 600 1;
#X obj 24 373 hsl 128 15 0.001 144 1 0 empty empty empty -2 -8 0 10
-262144 -1 -1 11900 1;
#X floatatom 27 447 5 0 0 0 - - -, f 5;
#X text 15 310 position and rate of change;
#X obj 206 333 hsl 128 15 -1 1 0 0 empty empty empty -2 -8 0 10 -262144
-1 -1 11000 1;
#X obj 203 498 s toSC;
#X obj 206 353 hsl 128 15 -1 1 0 0 empty empty empty -2 -8 0 10 -262144
-1 -1 7300 1;
#X obj 206 373 hsl 128 15 0.001 144 1 0 empty empty empty -2 -8 0 10
-262144 -1 -1 3300 1;
#X floatatom 209 447 5 0 0 0 - - -, f 5;
#X obj 387 333 hsl 128 15 0 4 0 0 empty empty empty -2 -8 0 10 -262144
-1 -1 1600 1;
#X obj 384 498 s toSC;
#X obj 387 353 hsl 128 15 0 4 0 0 empty empty empty -2 -8 0 10 -262144
-1 -1 6900 1;
#X obj 387 373 hsl 128 15 0.001 144 1 0 empty empty empty -2 -8 0 10
-262144 -1 -1 10600 1;
#X floatatom 390 447 5 0 0 0 - - -, f 5;
#X obj 582 333 hsl 128 15 0 0.5 0 0 empty empty empty -2 -8 0 10 -262144
-1 -1 700 1;
#X obj 579 498 s toSC;
#X obj 582 353 hsl 128 15 0 0.5 0 0 empty empty empty -2 -8 0 10 -262144
-1 -1 4800 1;
#X obj 582 373 hsl 128 15 0.001 144 1 0 empty empty empty -2 -8 0 10
-262144 -1 -1 9200 1;
#X floatatom 585 447 5 0 0 0 - - -, f 5;
#X obj 765 333 hsl 128 15 0 1 0 0 empty empty empty -2 -8 0 10 -262144
-1 -1 7300 1;
#X obj 762 498 s toSC;
#X obj 765 353 hsl 128 15 0 1 0 0 empty empty empty -2 -8 0 10 -262144
-1 -1 1600 1;
#X obj 765 373 hsl 128 15 0.001 144 1 0 empty empty empty -2 -8 0 10
-262144 -1 -1 2200 1;
#X floatatom 768 447 5 0 0 0 - - -, f 5;
#X text 197 310 panning and rate of change;
#X text 372 310 playbackrate and rate of change;
#X text 570 310 triggerrate and rate of change;
#X text 759 310 duration and rate of change;
#X obj 643 89 oscformat /oo;
#X obj 643 108 list prepend send;
#X obj 643 127 list trim;
#X obj 643 155 netsend -u -b;
#X msg 380 188 synth set vol \$1;
#X obj 643 70 list;
#X msg 34 108 func value \$1 \$2;
#X msg 27 468 synth set posRate \$1;
#X msg 21 400 synth set posMin \$1;
#X msg 21 422 synth set posMax \$1;
#X msg 203 400 synth set panMin \$1;
#X msg 203 422 synth set panMax \$1;
#X msg 209 468 synth set panRate \$1;
#X msg 384 400 synth set pchMin \$1;
#X msg 384 422 synth set pchMax \$1;
#X msg 390 468 synth set pchRate \$1;
#X msg 579 400 synth set trgMin \$1;
#X msg 579 422 synth set trgMax \$1;
#X msg 585 468 synth set trgRate \$1;
#X msg 762 400 synth set durMin \$1;
#X msg 762 422 synth set durMax \$1;
#X msg 768 468 synth set durRate \$1;
#X text 148 53 release time in seconds for fading out old synth;
#X connect 0 0 7 0;
#X connect 1 0 0 0;
#X connect 2 0 3 0;
#X connect 3 0 49 0;
#X connect 5 0 7 1;
#X connect 7 0 52 0;
#X connect 8 0 54 0;
#X connect 9 0 51 0;
#X connect 10 0 12 0;
#X connect 12 0 50 0;
#X connect 13 0 14 0;
#X connect 14 0 10 0;
#X connect 18 0 55 0;
#X connect 19 0 20 0;
#X connect 20 0 53 0;
#X connect 22 0 56 0;
#X connect 24 0 57 0;
#X connect 25 0 26 0;
#X connect 26 0 58 0;
#X connect 27 0 59 0;
#X connect 29 0 60 0;
#X connect 30 0 31 0;
#X connect 31 0 61 0;
#X connect 32 0 62 0;
#X connect 34 0 63 0;
#X connect 35 0 36 0;
#X connect 36 0 64 0;
#X connect 37 0 65 0;
#X connect 39 0 66 0;
#X connect 40 0 41 0;
#X connect 41 0 67 0;
#X connect 46 0 47 0;
#X connect 47 0 48 0;
#X connect 48 0 49 0;
#X connect 50 0 16 0;
#X connect 51 0 46 0;
#X connect 52 0 6 0;
#X connect 53 0 17 0;
#X connect 54 0 17 0;
#X connect 55 0 17 0;
#X connect 56 0 23 0;
#X connect 57 0 23 0;
#X connect 58 0 23 0;
#X connect 59 0 28 0;
#X connect 60 0 28 0;
#X connect 61 0 28 0;
#X connect 62 0 33 0;
#X connect 63 0 33 0;
#X connect 64 0 33 0;
#X connect 65 0 38 0;
#X connect 66 0 38 0;
#X connect 67 0 38 0;
